<svg id="Capa_1" enable-background="new 0 0 512 512" height="512" viewBox="0 0 512 512" width="512" xmlns="http://www.w3.org/2000/svg"><g><g><g><g><g><g><g><g><g><g><g><path d="m302.826 273.571v-67.281h-93.651v67.281c0 11.447-7.936 21.304-19.016 23.852 0 0 2.485 55.317 65.842 55.317s69.85-54.506 69.85-54.506l-3.157-.608c-11.534-2.219-19.868-12.311-19.868-24.055z" fill="#ffddce"/></g><path d="m401.39 448.165c-8.105-59.208-51.049-108.407-109.36-124.028-24.441 13.619-55.218 11.324-77.5-6.843l-24.371-19.871c-.285.065-.562.148-.851.203l-25.966 4.997c-67.417 12.975-116.322 71.422-117.31 139.875l8.976 5.667z" fill="#9bc4f9"/><path d="m401.334 447.404c-.281-1.788-.69-4.083-.848-4.904 0 0 0-.001 0-.002h-354.454c-.011.731-.024 1.461-.024 2.193v31.849c0 19.584 15.876 35.46 35.46 35.46h315.89l5.748-4v-38.053c-.001-7.652-.614-15.18-1.772-22.543z" fill="#ffddce"/><path d="m395.716 448.165h61.277l8.986-5.667c-.945-68.494-49.872-126.894-117.32-139.874l-22.809-4.39-24.116 19.375c-5.846 4.696-12.265 8.296-18.988 10.826 59.495 12.625 104.045 60.882 112.97 119.73z" fill="#7fb2f9"/><path d="m465.993 476.54v-31.849c0-.733-.013-1.463-.024-2.193h-71.232c1.718 8.912 2.62 18.091 2.62 27.449v42.053h33.176c19.584 0 35.46-15.876 35.46-35.46z" fill="#ffcbbe"/><path d="m281.722 249.663c19.886-17.48 30.826-43.139 31.28-69.751l-.325-84.486c-.188-45.159-29.447-79.419-67.47-92.307-45.871 5.817-84.766 42.531-84.98 93.73l-.111 26.558-6.59-.028c-9.662-.041-17.527 7.853-17.568 17.633l-.082 19.623c-.041 9.78 7.759 17.741 17.421 17.782 3.616.015 6.635 2.783 6.933 6.387 1.93 23.391 12.278 45.521 29.894 61.006 11.257 9.895 25.648 18.837 43.877 23.171l15.305.589c12.856-4.994 23.625-12.18 32.416-19.907z" fill="#ffddce"/><path d="m376.041 141.012c-.022-5.354-2.4-10.133-6.124-13.364-21.188-6.503-39.655-10.51-57.168-13.239v-.033c-1.638-.255-3.275-.497-4.912-.73l.249 64.799c-.438 25.702-11.004 50.483-30.21 67.365-11.214 9.857-25.747 18.818-43.877 23.171 6.82 1.638 14.146 2.628 22 2.761 28.732-.491 50.444-12.367 65.876-25.932 17.616-15.484 27.963-37.615 29.894-61.006.297-3.604 3.316-6.372 6.933-6.387 9.662-.041 17.461-8.003 17.421-17.782z" fill="#ffcbbe"/></g></g><path d="m169.041 301.527-5.7 1.097c-12.061 2.321-23.525 6.106-34.233 11.139v153.482h39.933z" fill="#eaf2ff"/><path d="m344.963 350.43v116.816h39.933v-69.636c-9.877-18.309-23.489-34.401-39.933-47.18z" fill="#eaf2ff"/><g fill="#dbe8f9"><path d="m344.963 301.912v56.616c17.141 14.21 30.845 32.242 39.933 52.667v-96.479c-11.276-5.513-23.422-9.627-36.237-12.093z"/><path d="m397.392 512v-41.682c0-5.156-1.636-10.179-4.673-14.345l-4.625-6.346c-3.037-4.167-4.673-9.19-4.673-14.346v-.845c0-13.452-10.905-24.357-24.357-24.357h-204.217c-13.452 0-24.357 10.905-24.357 24.357 0 5.674-1.981 11.17-5.601 15.54l-4.68 5.649c-3.62 4.369-5.601 9.866-5.601 15.54v40.835z"/></g></g><g><g><path d="m312.677 95.426c-.19-45.591-30.005-80.085-68.56-92.682l-15.197 1.341-37.671 9.462c-28.922 7.265-49.2 33.266-49.2 63.086v51.024h170.751z" fill="#e07f84"/></g><g fill="#db636e"><path d="m320.751 13.548-43.448-10.914c-13.985-3.513-28.621-3.513-42.605 0l-5.777 1.451c43.155 8.172 78.649 43.861 78.853 92.764l.118 30.808h62.059v-51.023c-.001-29.821-20.278-55.822-49.2-63.086z"/><path d="m312.908 155.629-.159-41.252c-56.904-8.871-112.972-4.445-170.7 13.281 5.882 5.48 11.653 11.094 17.271 16.866 9.313 9.57 22.762 13.997 35.921 11.728 39.518-6.815 78.21-7.008 117.667-.623z"/></g></g></g></g><path d="m307.838 113.658.158 41.199c2.918.432 5.839.89 8.766 1.395 13.211 2.278 26.706-2.195 36.025-11.833 5.566-5.757 11.279-11.358 17.164-16.761-20.884-6.411-41.548-11.068-62.113-14z" fill="#d84a54"/></g></g></g><g fill="#9bc4f9"><circle cx="344.963" cy="443.573" r="7.864"/><circle cx="169.041" cy="443.573" r="7.864"/></g></g><g><path d="" fill="#eaf7f7"/></g><g><path d="m285.055 77.518h-58.109c-5.853 0-10.598-4.745-10.598-10.598v-13.587c0-5.853 4.745-10.598 10.598-10.598h58.109c5.853 0 10.598 4.745 10.598 10.598v13.587c-.001 5.853-4.745 10.598-10.598 10.598z" fill="#ffd064"/></g></g></svg>